Coordinates
version=1
nRows=16
nColumns=28
inDegrees=yes

Units are S.I. units (second, meters, Newtons, ...)
Angles are in degrees.

endheader
time	pelvis_tilt	pelvis_list	pelvis_rotation	pelvis_tx	pelvis_ty	pelvis_tz	hip_flexion_r	hip_adduction_r	hip_rotation_r	knee_angle_r	ankle_angle_r	subtalar_angle_r	mtp_angle_r	hip_flexion_l	hip_adduction_l	hip_rotation_l	knee_angle_l	socket_flexion	socket_adduction	socket_rotation	socket_tx	socket_ty	socket_tz	foot_flex	lumbar_extension	lumbar_bending	lumbar_rotation
      0.26666667	      0.88670849	      7.22358784	     -3.10821379	     -0.38634241	      0.98430316	      0.22846658	     13.48322343	    -12.63713286	      1.15315247	    -64.39699888	    -14.53492836	    -10.64326929	     20.78778099	      7.34200224	      8.33671485	      2.10763615	    -19.67499264	      0.00000000	      0.00000000	      0.00000000	      0.00000000	      0.00000000	      0.00000000	      5.09142338	     -7.91938480	     -8.48622959	     -3.51352762
      0.27083333	      0.91312480	      7.02633591	     -3.08061976	     -0.38050739	      0.98530242	      0.22829291	     14.20980993	    -12.45864068	      1.15560743	    -64.41681348	    -13.89526214	    -10.95567775	     20.69212008	      6.67657132	      8.16624961	      2.32051887	    -19.23316503	      0.00000000	      0.00000000	      0.00000000	      0.00000000	      0.00000000	      0.00000000	      5.09299408	     -7.95417352	     -8.21724378	     -3.66827322
      0.27500000	      0.96028159	      6.77806975	     -3.05470788	     -0.37475928	      0.98635457	      0.22830456	     14.89525695	    -12.15912497	      1.18191015	    -64.41837018	    -12.93201587	    -11.44378527	     20.54973777	      5.99682869	      7.91517094	      2.46282649	    -18.80836925	      0.00000000	      0.00000000	      0.00000000	      0.00000000	      0.00000000	      0.00000000	      5.06776125	     -8.01276924	     -7.93319634	     -3.93063143
      0.27916667	      1.02278343	      6.53232952	     -3.02188295	     -0.36913224	      0.98738368	      0.22820585	     15.55673865	    -11.88075715	      1.18873082	    -64.36092996	    -12.06344370	    -11.93068546	     20.31538498	      5.32736278	      7.67618979	      2.60034500	    -18.41962678	      0.00000000	      0.00000000	      0.00000000	      0.00000000	      0.00000000	      0.00000000	      5.06632501	     -8.14041265	     -7.60822993	     -4.22941629
      0.28333333	      1.05287932	      6.29373953	     -2.97428420	     -0.36344296	      0.98836627	      0.22810587	     16.22354752	    -11.62018424	      1.15642798	    -64.22019188	    -11.34309902	    -12.33062635	     20.10548936	      4.66742165	      7.44564444	      2.78855897	    -17.97993190	      0.00000000	      0.00000000	      0.00000000	      0.00000000	      0.00000000	      0.00000000	      5.03916496	     -8.19098645	     -7.31708478	     -4.47364722
      0.28750000	      1.28127577	      5.95947603	     -2.85892427	     -0.35792717	      0.98971225	      0.22799352	     16.60553800	    -11.22784695	      1.04527864	    -64.00676769	    -10.41693665	    -12.81473975	     17.46100721	      3.80593540	      7.11746354	      3.04557706	    -17.56342091	      0.00000000	      0.00000000	      0.00000000	      0.00000000	      0.00000000	      0.00000000	      5.04742125	     -8.52638893	     -6.88941039	     -4.99378504
      0.29166667	      1.22533649	      5.75885779	     -2.80919140	     -0.35222226	      0.99050032	      0.22787461	     17.33856813	    -11.01990214	      1.00429285	    -63.75988450	     -9.81973877	    -13.04940814	     17.45838004	      3.22543501	      6.91660056	      3.21992112	    -17.08945147	      0.00000000	      0.00000000	      0.00000000	      0.00000000	      0.00000000	      0.00000000	      4.98903864	     -8.47008310	     -6.63123324	     -5.10867909
      0.29583333	      1.18507478	      5.51188614	     -2.75562086	     -0.34663739	      0.99129680	      0.22782428	     18.04121643	    -10.72309602	      0.96613007	    -63.48222560	     -9.10042647	    -13.36691708	     17.43232429	      2.65139772	      6.65991810	      3.39207468	    -16.64898606	      0.00000000	      0.00000000	      0.00000000	      0.00000000	      0.00000000	      0.00000000	      4.94296269	     -8.46404531	     -6.32746962	     -5.28504449
      0.30000000	      1.14031368	      5.23108004	     -2.67915562	     -0.34100891	      0.99215074	      0.22777515	     18.67321453	    -10.35583144	      0.93515288	    -63.07096741	     -8.27744883	    -13.76995609	     17.35327307	      2.07383426	      6.36199267	      3.55750432	    -16.20290351	      0.00000000	      0.00000000	      0.00000000	      0.00000000	      0.00000000	      0.00000000	      4.87476371	     -8.44469885	     -5.98690404	     -5.54018357
      0.30416667	      1.11130748	      4.96155158	     -2.59061181	     -0.33546939	      0.99294595	      0.22770189	     19.29388442	    -10.02337902	      0.86866023	    -62.64241125	     -7.60450959	    -14.13667328	     17.22731371	      1.49308616	      6.07653151	      3.73945257	    -15.76734276	      0.00000000	      0.00000000	      0.00000000	      0.00000000	      0.00000000	      0.00000000	      4.83176276	     -8.46195672	     -5.65422505	     -5.79962480
      0.30833333	      1.08744801	      4.65993393	     -2.48643551	     -0.32997313	      0.99376959	      0.22768088	     19.86542084	     -9.64259740	      0.77934689	    -62.12890104	     -6.92595391	    -14.54125645	     17.03331110	      0.91211998	      5.74672187	      3.93450241	    -15.33846907	      0.00000000	      0.00000000	      0.00000000	      0.00000000	      0.00000000	      0.00000000	      4.76924579	     -8.49379864	     -5.28306677	     -6.10285833
      0.31250000	      1.32024938	      4.26930464	     -2.23934706	     -0.32450674	      0.99502056	      0.22739711	     20.03093926	     -9.21964595	      0.50074822	    -61.46186426	     -6.45006183	    -15.25309547	     15.76323097	      0.05275021	      5.33913485	      4.29821047	    -14.90473119	      0.00000000	      0.00000000	      0.00000000	      0.00000000	      0.00000000	      0.00000000	      4.75260614	     -8.85394344	     -4.75155734	     -6.89876501
      0.31666667	      1.21294574	      4.09068884	     -2.17993050	     -0.31894779	      0.99551158	      0.22738666	     20.71840288	     -9.00457871	      0.43912378	    -60.91423346	     -5.99568011	    -15.41815817	     15.69857995	     -0.46590402	      5.13867723	      4.48213046	    -14.40323514	      0.00000000	      0.00000000	      0.00000000	      0.00000000	      0.00000000	      0.00000000	      4.71048638	     -8.76271533	     -4.54816087	     -6.94053830
      0.32083333	      1.09982935	      3.74917716	     -2.07553570	     -0.31343465	      0.99614392	      0.22739495	     21.29015006	     -8.53029292	      0.39351389	    -60.19367555	     -5.24131859	    -15.73987240	     15.53657321	     -0.94011275	      4.75323679	      4.62205828	    -13.98868411	      0.00000000	      0.00000000	      0.00000000	      0.00000000	      0.00000000	      0.00000000	      4.59265015	     -8.68381298	     -4.15134620	     -7.10664544
      0.32500000	      1.24657423	      3.34477345	     -1.84380464	     -0.30795509	      0.99718096	      0.22726171	     21.47088274	     -8.04415485	      0.15033981	    -59.34487424	     -4.71884430	    -16.28806439	     13.82371191	     -1.70176033	      4.30311786	      4.94080372	    -13.55134023	      0.00000000	      0.00000000	      0.00000000	      0.00000000	      0.00000000	      0.00000000	      4.59988451	     -8.93974365	     -3.63472004	     -7.73317673
      0.32916667	      1.10031911	      3.07784417	     -1.75622627	     -0.30247534	      0.99758687	      0.22730366	     22.07958085	     -7.65870602	      0.12736368	    -58.57100952	     -4.12750301	    -16.46933482	     13.65549166	     -2.14272108	      3.99249017	      5.08522555	    -13.11097302	      0.00000000	      0.00000000	      0.00000000	      0.00000000	      0.00000000	      0.00000000	      4.55198325	     -8.82479217	     -3.32531932	     -7.82420128
